<svg viewBox="0 0 16 16" width="22px" height="22px" color="#F7F7F7" focusable="false" role="img" alt="icon" xmlns="http://www.w3.org/2000/svg" fill="currentColor" class="bi-eye mx-auto b-icon bi" data-v-8892b924=""><g data-v-8892b924=""><path fill-rule="evenodd" d="M16 8s-3-5.5-8-5.5S0 8 0 8s3 5.5 8 5.5S16 8 16 8zM1.173 8a13.134 13.134 0 001.66 2.043C4.12 11.332 5.88 12.5 8 12.5c2.12 0 3.879-1.168 5.168-2.457A13.134 13.134 0 0014.828 8a13.133 13.133 0 00-1.66-2.043C11.879 4.668 10.119 3.5 8 3.5c-2.12 0-3.879 1.168-5.168 2.457A13.133 13.133 0 001.172 8z" clip-rule="evenodd"></path><path fill-rule="evenodd" d="M8 5.5a2.5 2.5 0 100 5 2.5 2.5 0 000-5zM4.5 8a3.5 3.5 0 117 0 3.5 3.5 0 01-7 0z" clip-rule="evenodd"></path></g></svg>